<svg class="img-fluid" id="outputsvg" xmlns="http://www.w3.org/2000/svg" style="transform: none; transform-origin: 50% 50%; cursor: move; max-height: none;" width="665" height="854" viewBox="0 0 6650 8540"><g id="l7kbXtLb32MUnXVFHd82Uk1" fill="rgb(18,59,51)" style="transform: none;"><g><path id="p2WSO3wK7" d="M1815 8524 c-11 -2 -62 -14 -112 -25 -51 -11 -95 -25 -99 -30 -6 -10 33 -137 46 -152 4 -5 36 0 71 10 91 25 386 25 477 0 86 -24 160 -58 200 -91 39 -34 40 -42 5 -49 -35 -7 -90 -44 -115 -77 -43 -58 -35 -151 18 -209 32 -37 34 -42 34 -113 0 -127 -60 -202 -193 -244 -69 -21 -272 -29 -367 -15 -134 20 -230 88 -230 160 l0 27 93 -4 c83 -3 97 -1 141 22 l49 25 48 -26 c44 -22 58 -25 137 -21 79 3 93 6 126 32 66 50 76 85 76 289 l0 177 -115 0 -115 0 0 -157 c0 -159 -6 -191 -33 -180 -19 7 -27 73 -27 218 l0 119 -111 0 -112 0 6 -39 5 -38 -69 -7 c-84 -8 -107 -16 -153 -56 -25 -23 -41 -48 -52 -87 -9 -31 -36 -81 -63 -117 -58 -76 -76 -134 -68 -221 12 -153 136 -265 355 -321 81 -20 118 -24 258 -24 175 0 255 12 367 54 133 50 226 129 276 235 23 49 26 69 27 168 1 105 2 114 27 147 38 50 47 78 47 156 0 107 -28 170 -114 256 -133 133 -326 202 -581 209 -77 2 -149 2 -160 -1z m697 -479 c17 -37 -3 -75 -40 -75 -35 0 -52 16 -52 50 0 34 17 50 52 50 21 0 32 -7 40 -25z m-810 -89 c12 -17 9 -71 -4 -84 -17 -17 -54 -15 -72 4 -36 36 0 113 47 98 12 -4 25 -12 29 -18z"></path><path id="pm1uhmIUq" d="M4060 8359 c-151 -25 -746 -141 -751 -147 -4 -4 -17 -36 -30 -71 l-23 -64 55 -49 54 -49 -52 -47 c-206 -187 -166 -472 85 -594 64 -31 73 -33 205 -36 119 -3 147 -1 210 18 39 12 96 35 124 51 29 16 57 29 63 29 7 0 8 -18 4 -50 l-7 -50 132 0 131 0 0 535 0 535 -72 -1 c-40 -1 -98 -5 -128 -10z m-62 -451 l2 -194 -28 -40 c-64 -88 -172 -134 -314 -134 -78 0 -100 4 -133 23 -47 27 -85 79 -85 119 0 51 53 148 81 148 4 0 37 -27 74 -61 l67 -61 35 34 c19 18 53 55 75 81 l41 48 -87 81 c-48 44 -84 83 -81 86 7 7 327 71 340 68 6 -2 11 -78 13 -198z"></path><path id="pHYYdbaFo" d="M331 8319 c-69 -27 -145 -101 -160 -155 -6 -22 -11 -58 -11 -81 0 -37 -5 -46 -46 -79 -69 -57 -104 -124 -104 -202 0 -108 56 -181 172 -223 56 -21 57 -22 64 -68 20 -139 127 -216 299 -215 95 1 173 22 272 73 40 21 75 36 78 33 3 -3 2 -27 -1 -54 l-7 -48 132 0 131 0 0 515 0 515 -130 0 -130 0 0 -313 0 -314 -28 -39 c-41 -57 -108 -113 -160 -136 -64 -29 -150 -35 -190 -14 -52 27 -42 48 33 70 36 10 68 22 70 27 6 8 -41 139 -53 151 -4 3 -38 -1 -77 -9 -96 -20 -169 -10 -207 27 -30 30 -37 67 -14 76 7 3 42 -5 77 -16 83 -29 229 -25 300 7 108 49 159 123 159 233 0 110 -50 184 -155 232 -74 33 -238 37 -314 7z m217 -185 c31 -20 31 -86 0 -108 -47 -33 -143 -14 -154 30 -21 81 73 128 154 78z"></path><path id="plN1EsVXg" d="M5090 8322 c-76 -26 -110 -45 -147 -84 -76 -79 -99 -213 -53 -310 42 -91 120 -141 323 -208 126 -41 149 -60 149 -124 1 -61 -23 -86 -86 -86 -61 0 -91 33 -83 92 l6 44 -104 27 c-157 41 -153 44 -162 -85 -5 -70 -3 -82 21 -132 33 -66 84 -107 173 -137 55 -18 82 -21 181 -17 98 3 125 7 165 27 95 46 146 124 155 237 7 93 -19 166 -83 230 -52 52 -72 62 -287 138 -96 34 -128 58 -128 95 0 53 29 66 149 66 149 -1 265 -43 384 -140 l57 -46 0 -305 0 -304 125 0 125 0 0 515 0 515 -126 0 -126 0 8 -67 7 -67 -24 15 c-68 44 -122 70 -194 95 -70 24 -99 28 -225 31 -121 3 -154 0 -200 -15z"></path><path id="pDuSTLIuq" d="M4460 7815 l0 -515 130 0 130 0 0 515 0 515 -130 0 -130 0 0 -515z"></path><path id="puU2bARp2" d="M6390 7960 c0 -289 -3 -370 -12 -370 -7 0 -47 22 -87 50 -55 36 -78 46 -88 39 -25 -21 -115 -171 -106 -179 4 -4 75 -51 156 -104 l148 -96 119 0 120 0 0 515 0 515 -125 0 -125 0 0 -370z"></path><path id="pEH27bbFq" d="M1443 7169 c-29 -45 -50 -86 -46 -92 3 -5 51 -31 107 -58 167 -79 346 -110 525 -89 136 15 320 80 390 137 l23 19 -52 79 c-28 44 -53 81 -55 83 -2 2 -29 -10 -61 -26 -100 -50 -158 -63 -309 -69 -193 -8 -279 10 -460 92 -5 3 -34 -32 -62 -76z"></path><path id="pW6rq88L6" d="M3085 6630 c-448 -34 -896 -171 -1318 -403 -177 -98 -161 -88 -272 -161 -333 -218 -677 -551 -893 -866 -28 -41 -55 -79 -60 -85 -17 -22 -132 -224 -170 -301 -164 -327 -281 -692 -333 -1039 -26 -173 -36 -504 -20 -699 35 -425 138 -801 322 -1168 428 -855 1094 -1436 1984 -1733 305 -101 596 -151 950 -161 279 -9 537 17 779 77 44 11 99 25 121 30 296 72 684 251 995 459 657 439 1157 1147 1370 1939 74 274 95 454 95 801 0 346 -19 500 -96 803 -114 451 -329 885 -621 1254 -94 119 -368 392 -508 507 -400 329 -857 555 -1360 672 -325 75 -630 99 -965 74z m184 -355 c225 -159 455 -359 713 -618 263 -264 501 -559 742 -920 78 -117 150 -229 161 -250 l20 -37 -30 -25 c-48 -40 -113 -85 -123 -85 -5 0 -27 33 -47 73 -197 377 -440 735 -624 918 -123 122 -174 159 -219 159 l-35 0 5 -44 c4 -32 59 -148 196 -413 105 -202 243 -475 306 -606 l115 -237 -30 -16 c-17 -8 -32 -14 -34 -12 -2 2 -45 75 -95 163 -377 653 -934 1443 -1323 1877 l-96 107 30 6 c46 10 158 22 220 24 54 1 60 -2 148 -64z m648 14 c142 -29 522 -147 550 -171 12 -9 13 -51 7 -237 -4 -124 -10 -236 -13 -248 -5 -19 -17 -10 -95 77 -100 110 -431 441 -546 543 -41 37 -69 67 -63 67 7 0 78 -14 160 -31z m-1280 -207 c219 -237 383 -436 609 -742 228 -307 228 -303 4 -90 -407 389 -628 582 -903 788 -125 94 -130 78 43 140 125 45 110 51 247 -96z m2308 -226 c236 -157 456 -335 449 -363 -27 -122 -103 -406 -134 -498 -38 -113 -120 -305 -130 -304 -3 0 -30 39 -60 87 -47 75 -140 208 -316 458 l-44 61 20 264 c11 145 22 297 26 337 l6 73 46 -27 c26 -15 88 -54 137 -88z m-2909 -353 c21 -27 182 -193 358 -371 181 -182 316 -326 310 -330 -217 -184 -328 -299 -468 -485 -38 -51 -75 -93 -83 -95 -19 -5 -227 96 -315 153 -66 43 -208 169 -208 185 0 4 28 56 61 116 34 60 80 147 102 194 70 151 147 410 177 598 8 45 17 82 21 82 3 0 24 -21 45 -47z m669 -187 c99 -82 223 -188 275 -235 143 -129 600 -508 815 -676 210 -163 229 -179 170 -145 -462 272 -952 668 -1380 1117 -169 177 -164 175 120 -61z m-1595 -399 c117 -348 244 -543 473 -725 118 -93 290 -186 462 -248 22 -8 69 -28 105 -45 l65 -30 0 -177 c0 -158 2 -184 23 -247 35 -107 96 -201 184 -287 l78 -77 -67 -83 c-95 -118 -165 -283 -195 -461 -16 -92 -15 -432 1 -517 32 -173 109 -363 196 -485 51 -71 180 -200 250 -251 101 -73 261 -141 395 -170 67 -14 128 -18 285 -17 190 0 204 1 285 28 115 37 192 73 276 128 246 162 411 418 480 742 21 97 24 421 6 531 -32 193 -105 367 -203 484 l-60 71 84 82 c68 68 91 99 130 177 66 134 77 185 77 371 l0 156 128 53 c341 142 453 210 612 370 123 122 177 201 259 371 65 135 112 266 164 458 l34 124 70 -85 c95 -113 190 -261 285 -445 l78 -152 -77 33 c-99 42 -169 78 -230 116 -30 19 -60 30 -82 30 -36 -1 -36 -1 -95 -121 -162 -330 -381 -560 -691 -725 l-85 -46 0 -47 c0 -101 96 -332 253 -607 47 -84 110 -201 140 -260 52 -104 140 -358 155 -447 7 -41 8 -42 47 -42 l40 0 32 76 c18 41 48 130 66 197 l33 122 50 -68 c73 -99 151 -188 327 -371 103 -108 157 -171 157 -185 0 -30 -152 -329 -229 -452 -199 -317 -433 -586 -681 -784 -237 -189 -604 -400 -860 -494 -411 -150 -776 -209 -1153 -186 -483 29 -953 176 -1380 432 -372 222 -689 519 -943 883 -108 154 -155 235 -250 427 l-86 177 150 158 c192 203 259 279 335 379 l61 82 23 -90 c28 -109 55 -190 87 -263 23 -51 27 -55 58 -55 l33 0 24 93 c35 132 88 291 126 374 18 39 84 161 146 270 62 109 133 241 157 293 58 125 112 290 112 345 l0 45 -71 37 c-314 167 -554 420 -710 748 -50 103 -51 105 -85 105 -22 0 -54 -13 -91 -37 -56 -36 -285 -144 -291 -138 -2 2 26 63 63 136 75 151 185 324 288 452 l72 89 23 -89 c13 -48 45 -155 72 -236z m1871 -326 c13 -11 22 -21 19 -23 -3 -3 -54 -40 -115 -83 -116 -83 -238 -178 -292 -228 -18 -17 -35 -28 -38 -26 -15 15 365 379 396 379 4 0 17 -9 30 -19z m435 -331 c164 -113 317 -209 427 -269 42 -23 77 -45 77 -48 0 -3 -21 -33 -46 -67 -95 -125 -135 -248 -143 -445 l-6 -135 -45 60 c-80 106 -203 225 -335 324 -71 53 -141 103 -155 110 -15 8 -20 15 -12 18 6 2 12 19 12 37 0 28 -7 39 -47 68 -27 19 -66 44 -88 57 -38 21 -40 25 -37 65 4 40 2 44 -42 75 -25 19 -46 37 -46 40 0 14 322 220 333 213 7 -4 75 -50 153 -103z m-2332 -38 l29 -8 -54 -64 c-71 -85 -175 -162 -269 -201 -41 -18 -145 -49 -230 -70 -85 -21 -170 -46 -189 -54 -18 -9 -35 -14 -37 -12 -7 6 32 109 66 176 37 74 69 121 83 121 6 0 33 17 61 39 81 62 132 83 216 90 81 6 277 -4 324 -17z m4889 7 c43 -14 82 -37 121 -70 32 -27 71 -56 86 -64 31 -16 76 -96 114 -203 14 -40 26 -75 26 -78 0 -2 -17 3 -37 11 -21 9 -116 36 -211 60 -247 62 -318 99 -447 228 l-100 101 115 17 c164 24 256 23 333 -2z m-4672 -330 c129 -190 142 -535 29 -816 -53 -131 -51 -131 -108 -12 -105 220 -152 387 -152 538 0 116 41 231 118 333 35 46 37 47 55 30 11 -9 37 -42 58 -73z m4157 44 c133 -171 151 -374 60 -653 -20 -62 -130 -296 -147 -313 -11 -11 -87 186 -113 292 -39 158 -24 374 35 532 22 56 108 179 126 179 5 0 23 -17 39 -37z m546 -485 c92 -62 177 -155 219 -240 55 -109 70 -182 65 -308 -5 -102 -44 -347 -58 -363 -11 -12 -199 171 -264 256 -58 77 -111 177 -142 267 -27 77 -27 292 0 406 l19 82 50 -30 c27 -16 77 -48 111 -70z m-5179 5 c65 -326 -8 -535 -282 -808 -63 -63 -118 -115 -122 -115 -14 0 -53 226 -58 341 -12 235 61 406 225 533 58 44 201 136 213 136 3 0 14 -39 24 -87z m2649 -143 c112 -42 230 -139 305 -249 103 -152 151 -296 158 -482 5 -120 -5 -199 -26 -199 -4 0 -26 16 -49 35 -59 51 -100 65 -192 65 -83 0 -134 -14 -159 -43 -8 -10 -28 -17 -47 -17 -32 0 -34 -2 -34 -34 0 -18 9 -45 20 -59 20 -25 20 -25 0 -30 -18 -4 -20 -14 -20 -75 0 -101 29 -121 183 -130 l100 -5 -39 -31 c-75 -58 -186 -171 -230 -232 -24 -34 -61 -98 -82 -143 l-38 -81 -24 57 c-52 126 -183 287 -325 400 l-40 32 98 1 c150 0 187 28 187 138 0 54 -3 64 -21 70 -19 7 -19 9 -5 21 10 9 16 29 16 57 0 42 -1 44 -29 44 -17 0 -33 5 -37 11 -17 28 -90 49 -172 49 -90 0 -113 -8 -194 -67 -41 -30 -47 -31 -52 -16 -15 51 -16 98 -7 203 18 205 95 387 226 528 97 105 214 175 340 206 37 9 132 -3 189 -24z"></path><path id="pY2ctBKcT" d="M3212 3203 c-42 -20 -55 -45 -50 -94 3 -35 1 -39 -19 -39 -12 0 -33 -4 -47 -10 -22 -8 -26 -16 -26 -49 0 -76 32 -86 275 -86 209 0 225 6 225 84 0 53 -8 60 -75 62 -16 0 -24 3 -17 6 6 2 12 22 12 42 0 41 -25 72 -73 90 -44 17 -167 13 -205 -6z"></path><path id="pG3Th75H3" d="M3275 2896 c-5 -2 -22 -7 -36 -10 -44 -9 -79 -50 -79 -91 0 -74 32 -90 125 -61 33 10 48 10 82 -1 23 -8 59 -13 80 -11 37 3 38 4 41 46 6 77 -41 119 -145 127 -32 3 -62 3 -68 1z"></path><path id="pkrSY0s75" d="M3224 2086 c-24 -20 -28 -32 -31 -87 -3 -40 1 -74 9 -89 36 -69 188 -82 235 -21 7 9 12 46 12 86 1 104 -31 135 -138 135 -49 0 -65 -4 -87 -24z"></path></g></g><g id="l4ejlNf7h82Mi7y4xGFgPOr" fill="rgb(250,247,231)" style="transform: none;"><g><path id="pLOABQiaC" d="M2873 6347 c-34 -7 -64 -15 -67 -18 -3 -3 24 -39 61 -80 442 -486 992 -1258 1398 -1964 54 -93 99 -172 101 -173 7 -9 124 52 124 64 0 8 -35 80 -77 161 -151 291 -223 426 -233 438 -4 6 -27 46 -51 90 -23 44 -46 82 -50 85 -7 5 -34 48 -65 105 -9 17 -45 73 -80 126 -35 54 -64 100 -64 104 0 4 -8 17 -17 30 -10 12 -25 33 -33 45 -8 12 -20 28 -26 34 -5 6 -13 19 -17 29 -9 25 37 23 74 -4 32 -23 33 -22 19 16 l-10 26 31 -18 c18 -10 82 -67 144 -128 171 -167 377 -455 550 -770 135 -245 136 -246 151 -252 16 -6 90 35 139 79 31 27 33 31 19 45 -8 8 -24 34 -36 57 -11 22 -34 60 -49 83 -16 23 -29 46 -29 50 0 5 -9 18 -19 30 -10 11 -26 33 -34 49 -8 16 -25 40 -37 54 -12 14 -29 39 -37 55 -9 17 -19 32 -23 35 -3 3 -33 46 -66 95 -32 50 -61 92 -64 95 -3 3 -22 28 -41 55 -18 28 -36 52 -39 55 -3 3 -25 32 -50 65 -25 33 -47 62 -50 65 -3 3 -19 23 -35 45 -16 22 -42 52 -57 67 -16 15 -28 31 -28 36 0 8 -13 24 -79 99 -11 13 -55 62 -97 110 -42 49 -83 92 -93 97 -26 14 -71 59 -71 71 0 14 -92 105 -106 105 -13 0 -54 43 -68 72 -6 13 -26 30 -43 38 -18 8 -33 20 -33 27 0 7 -10 18 -22 24 -13 7 -27 18 -31 25 -4 8 -15 14 -22 14 -8 0 -15 4 -15 9 0 13 -123 91 -144 91 -9 0 -19 6 -22 13 -5 15 -116 68 -181 88 -24 7 -43 16 -43 20 0 11 -89 38 -145 43 -27 2 -78 -1 -112 -7z"></path><path id="p4AmzgATs" d="M2256 6170 c-66 -28 -95 -46 -85 -53 2 -2 60 -45 129 -97 348 -259 787 -654 1233 -1110 121 -124 215 -215 208 -203 -45 86 -406 590 -432 603 -10 6 -19 16 -19 23 0 17 -63 87 -78 87 -7 0 -12 6 -12 13 0 18 -188 220 -214 230 -9 4 -16 12 -16 20 0 16 -37 51 -63 60 -9 4 -20 15 -24 24 -3 10 -18 28 -32 41 -14 13 -54 49 -88 80 -102 94 -123 112 -133 112 -6 0 -10 4 -10 10 0 5 -11 12 -25 16 -14 3 -25 12 -25 20 0 7 -11 16 -25 20 -14 3 -25 10 -25 15 0 5 -7 9 -15 9 -8 0 -15 5 -15 10 0 6 -7 10 -15 10 -8 0 -15 5 -15 10 0 6 -7 10 -15 10 -8 0 -15 4 -15 10 0 10 -81 60 -96 59 -5 0 -40 -13 -78 -29z"></path><path id="phcWdUOFA" d="M4776 5918 c-8 -96 -2 -736 7 -744 4 -4 7 -15 7 -25 0 -10 11 -29 25 -43 14 -14 25 -34 25 -46 0 -11 5 -20 10 -20 6 0 10 -7 10 -15 0 -8 5 -15 10 -15 6 0 10 -7 10 -15 0 -8 5 -15 10 -15 6 0 10 -7 10 -15 0 -8 5 -15 10 -15 6 0 10 -7 10 -15 0 -8 5 -15 10 -15 6 0 10 -7 10 -15 0 -8 5 -15 10 -15 6 0 10 -7 10 -15 0 -8 5 -15 10 -15 6 0 10 -7 10 -15 0 -8 5 -15 10 -15 6 0 10 -6 10 -14 0 -8 7 -17 16 -20 8 -3 13 -10 10 -14 -3 -5 13 -32 35 -60 21 -29 39 -57 39 -62 0 -14 41 -33 50 -23 20 22 113 243 149 355 47 147 131 478 131 519 0 22 -16 41 -87 102 -167 141 -507 377 -544 377 -14 0 -18 -13 -23 -72z"></path><path id="p15UJ1agyn" d="M2141 5805 c56 -72 189 -219 362 -402 460 -488 917 -864 1417 -1164 264 -158 396 -220 348 -162 -13 16 -355 291 -533 428 -129 100 -624 513 -730 610 -201 182 -746 625 -850 690 -30 19 -30 19 -14 0z"></path><path id="pB00MVjmT" d="M2007 5562 c-9 -10 -17 -28 -17 -40 0 -11 -4 -23 -9 -26 -4 -3 -14 -26 -21 -51 -7 -25 -20 -50 -29 -54 -10 -6 -16 -23 -16 -50 0 -23 -3 -41 -7 -41 -5 0 -8 -10 -8 -23 0 -13 -4 -27 -9 -32 -4 -6 -26 -64 -46 -130 -46 -143 -88 -238 -182 -405 -38 -69 -72 -133 -76 -143 -10 -27 106 -144 208 -212 105 -69 340 -185 376 -185 4 0 46 51 92 113 124 164 258 309 391 421 64 54 116 101 116 105 0 3 -141 147 -313 321 -173 173 -340 346 -373 383 -58 65 -61 67 -77 49z"></path><path id="p1Fn59deM6" d="M951 5228 c-96 -112 -156 -198 -138 -198 9 0 18 -23 27 -72 7 -40 14 -78 16 -83 3 -6 -22 -15 -53 -21 -32 -7 -77 -20 -100 -30 -40 -18 -46 -26 -108 -152 -67 -138 -84 -182 -68 -182 19 0 332 149 386 183 32 21 59 37 61 37 3 0 27 -47 55 -105 156 -328 396 -581 710 -748 48 -25 71 -43 71 -56 0 -13 15 -23 56 -37 30 -10 59 -23 63 -29 4 -5 13 -57 19 -115 6 -59 21 -136 33 -172 l22 -66 -55 -64 c-141 -160 -236 -326 -308 -534 -74 -214 -84 -285 -85 -569 0 -240 1 -255 28 -370 166 -700 714 -1213 1426 -1335 134 -23 474 -28 591 -9 267 42 521 140 735 284 333 223 560 522 684 901 64 198 76 284 76 559 0 227 -2 246 -28 356 -65 275 -195 532 -361 718 -34 37 -55 69 -52 77 16 41 37 140 42 196 13 153 7 141 79 168 45 17 65 30 65 41 0 11 29 33 85 63 305 162 516 380 683 707 33 64 61 122 64 130 3 10 24 2 76 -30 39 -23 127 -67 194 -97 68 -30 135 -61 150 -69 40 -23 49 -20 37 13 -28 76 -136 282 -147 282 -7 0 -20 7 -28 15 -14 13 -136 55 -163 55 -14 0 -14 26 0 109 6 36 18 71 26 78 18 14 22 8 -96 152 -46 56 -89 100 -95 98 -6 -2 -25 -57 -43 -123 -119 -441 -252 -700 -459 -893 -144 -136 -233 -188 -519 -311 l-200 -86 3 -155 c4 -182 -6 -229 -75 -369 -41 -83 -60 -108 -146 -192 l-100 -97 63 -68 c140 -153 217 -348 240 -609 42 -468 -144 -890 -494 -1121 -84 -55 -161 -91 -276 -128 -78 -25 -98 -28 -255 -28 -127 0 -191 4 -255 17 -134 29 -293 97 -395 170 -70 51 -199 180 -250 251 -87 122 -165 314 -196 485 -16 85 -16 366 -1 457 29 176 100 343 193 457 35 43 73 89 84 103 l20 24 -35 26 c-118 89 -218 226 -262 358 -21 63 -23 88 -22 247 l0 177 -65 30 c-36 17 -84 37 -106 45 -247 89 -445 213 -608 380 -164 168 -289 425 -393 811 -20 72 -39 134 -44 138 -4 5 -40 -29 -79 -75z"></path><path id="pdJJMnpP4" d="M2875 4608 c-177 -131 -506 -506 -480 -548 10 -16 40 5 155 105 139 121 283 234 407 320 56 39 102 75 103 82 0 13 -90 93 -105 93 -5 0 -41 -24 -80 -52z"></path><path id="pkMIZe8TJ" d="M3055 4290 c-99 -66 -181 -125 -183 -132 -1 -7 14 -26 35 -43 21 -16 50 -42 66 -57 16 -16 32 -28 37 -28 12 0 98 -98 113 -128 6 -15 25 -33 41 -40 15 -8 34 -29 42 -48 8 -19 21 -34 30 -34 9 0 21 -14 27 -30 6 -17 19 -33 29 -36 10 -3 18 -14 18 -25 0 -12 10 -23 25 -29 14 -5 25 -15 25 -21 0 -6 47 -56 104 -110 57 -55 141 -147 187 -204 45 -58 86 -105 90 -105 13 0 19 46 19 160 0 200 53 358 165 493 31 38 55 74 52 80 -2 7 -44 34 -93 61 -130 72 -274 163 -454 287 -87 60 -167 109 -177 109 -10 0 -99 -54 -198 -120z"></path><path id="p1BN4F4H6S" d="M1006 4263 c-4 -4 -28 -13 -54 -21 -26 -7 -60 -17 -77 -22 -43 -13 -104 -30 -150 -41 -70 -18 -193 -78 -303 -148 -63 -40 -74 -52 -91 -96 -29 -78 -54 -175 -47 -182 3 -4 39 8 79 25 39 18 137 48 216 67 184 46 282 84 368 144 95 67 234 225 219 250 -3 5 -32 12 -63 15 -32 4 -65 9 -74 12 -8 2 -19 1 -23 -3z"></path><path id="p6zOYVyQ8" d="M5538 4251 c-26 -4 -50 -10 -54 -14 -14 -14 22 -64 116 -158 124 -125 197 -162 446 -225 97 -24 210 -60 251 -79 l75 -35 -7 38 c-3 20 -19 73 -33 117 -22 66 -32 82 -57 95 -16 8 -37 23 -46 33 -9 9 -21 17 -28 17 -6 0 -11 4 -11 10 0 5 -11 12 -25 16 -14 3 -25 9 -25 13 0 11 -67 41 -90 41 -11 0 -20 5 -20 10 0 6 -11 10 -25 10 -14 0 -25 4 -25 9 0 12 -56 31 -91 31 -15 0 -29 5 -31 11 -2 5 -24 13 -48 16 -25 3 -47 9 -50 12 -8 11 -127 41 -152 40 -13 -1 -44 -5 -70 -8z"></path><path id="ppzGaejKZ" d="M1306 3879 c-10 -12 -30 -47 -43 -78 -14 -31 -28 -58 -32 -61 -4 -3 -23 -39 -44 -80 -47 -98 -61 -192 -54 -370 6 -132 7 -137 46 -223 46 -97 87 -167 99 -167 15 0 90 164 116 254 65 224 56 539 -21 703 -21 45 -41 51 -67 22z"></path><path id="peIMJIy5a" d="M5275 3863 c-75 -177 -92 -432 -45 -632 31 -128 116 -331 138 -331 19 0 85 139 99 210 20 95 23 383 5 458 -12 54 -47 130 -96 212 -15 25 -34 62 -43 83 -9 20 -22 37 -29 37 -8 0 -21 -17 -29 -37z"></path><path id="p10TuxijAN" d="M5817 3593 c-2 -5 -13 -42 -23 -83 -27 -108 -27 -391 0 -470 31 -91 84 -191 143 -268 59 -77 278 -292 298 -292 23 0 35 47 25 102 -5 29 -17 122 -26 207 -19 187 -33 243 -85 344 -41 81 -51 97 -82 125 -82 75 -167 168 -185 205 -12 24 -25 65 -28 91 -6 41 -24 61 -37 39z"></path><path id="pEJRH8qZO" d="M782 3558 c-6 -13 -16 -41 -22 -64 -11 -44 -15 -50 -154 -194 -51 -52 -98 -110 -105 -127 -7 -18 -17 -33 -21 -33 -4 0 -11 -15 -14 -34 -4 -19 -11 -36 -16 -38 -15 -5 -47 -146 -60 -259 -6 -57 -16 -121 -21 -142 -8 -29 -6 -56 6 -113 10 -41 21 -76 26 -79 10 -7 170 139 251 230 173 196 235 357 225 590 -3 66 -13 157 -23 203 -15 72 -19 82 -39 82 -12 0 -26 -9 -33 -22z"></path><path id="pluXrbo4x" d="M3254 3372 c-102 -35 -296 -203 -384 -332 -8 -12 -21 -28 -27 -36 -7 -7 -13 -17 -13 -22 0 -5 -9 -19 -20 -32 -11 -13 -20 -29 -20 -37 0 -8 -7 -21 -15 -29 -20 -20 -54 -133 -67 -224 -11 -81 -4 -283 11 -288 5 -2 7 -11 4 -21 -6 -22 57 -67 123 -87 62 -19 172 -18 251 2 35 9 70 13 78 10 22 -8 19 -69 -5 -98 -34 -44 -68 -51 -216 -45 -74 3 -134 4 -134 3 0 -2 46 -39 103 -83 180 -142 289 -276 357 -440 18 -43 36 -82 40 -87 5 -5 15 6 24 25 55 129 92 200 130 253 56 79 178 194 289 275 89 64 102 80 53 61 -15 -5 -69 -10 -119 -10 -172 1 -230 25 -235 99 -4 53 7 57 89 35 175 -46 360 8 404 118 20 50 23 249 5 347 -53 295 -230 535 -458 621 -59 23 -207 36 -248 22z m139 -196 c18 -7 41 -23 52 -35 16 -19 17 -24 5 -31 -20 -13 -247 -13 -255 0 -10 16 12 46 47 63 40 20 108 22 151 3z m125 -142 c30 -9 28 -40 -5 -61 -23 -15 -50 -18 -178 -18 -156 0 -218 11 -229 42 -9 22 3 32 55 43 47 10 318 6 357 -6z m-113 -193 c38 -22 64 -66 48 -82 -8 -8 -26 -6 -67 7 -53 17 -61 17 -117 2 -56 -15 -60 -15 -69 2 -13 24 -4 45 28 66 54 35 119 37 177 5z m-349 -396 c19 -8 46 -23 60 -34 14 -11 33 -17 44 -14 31 8 25 -21 -11 -52 -69 -57 -105 -68 -209 -62 -101 5 -166 25 -177 53 -7 20 24 49 102 95 58 33 132 39 191 14z m709 -5 c55 -26 130 -94 121 -109 -19 -30 -86 -51 -164 -51 -112 0 -222 44 -253 101 -10 20 -9 21 14 15 19 -4 33 1 55 19 16 14 40 29 53 34 41 17 131 12 174 -9z m-402 -371 c37 -19 57 -52 57 -95 0 -69 -55 -107 -123 -85 -51 17 -72 45 -72 98 0 37 5 49 28 69 30 26 74 31 110 13z"></path></g></g><g id="l7OlFNpOQYiS7X8bx7QjHr8" fill="rgb(86,155,114)" style="transform: none;"><g><path id="pRV3RqEmt" d="M1807 3812 c6 -25 -56 -209 -109 -322 -24 -52 -95 -184 -157 -293 -161 -283 -192 -355 -264 -617 l-35 -125 -27 59 c-35 79 -69 183 -95 298 -12 51 -24 99 -26 107 -3 9 -16 -2 -36 -30 -118 -166 -181 -240 -414 -486 -85 -90 -154 -171 -154 -180 0 -26 178 -384 238 -480 278 -443 626 -788 1049 -1041 431 -258 899 -403 1391 -433 413 -25 780 33 1202 187 243 90 620 304 835 474 374 297 688 704 897 1162 56 122 58 129 44 156 -8 15 -92 109 -186 207 -177 185 -247 266 -341 398 -30 42 -57 76 -60 76 -4 1 -10 -20 -14 -46 -19 -129 -122 -422 -143 -409 -5 3 -12 22 -14 43 -11 77 -102 341 -155 447 -30 59 -93 176 -140 260 -115 201 -178 336 -223 473 -21 63 -40 116 -42 119 -5 4 -133 -42 -146 -52 -2 -1 -8 -49 -13 -106 -5 -56 -18 -134 -30 -173 -36 -122 -37 -113 32 -190 173 -195 301 -447 366 -724 25 -107 28 -132 28 -326 0 -242 -14 -337 -76 -529 -124 -379 -351 -678 -684 -901 -214 -144 -468 -242 -735 -284 -114 -19 -398 -14 -531 9 -459 78 -863 326 -1133 694 -141 191 -235 400 -292 641 -27 113 -29 133 -28 340 0 251 12 331 84 539 72 210 169 377 311 538 32 36 59 75 59 85 0 11 -11 52 -25 92 -15 41 -30 118 -37 179 -6 59 -15 111 -19 116 -6 7 -145 66 -156 66 0 0 1 -8 4 -18z"></path></g></g><g id="l6XdLNzHJ7akIY75PX5VDNG" fill="rgb(195,192,164)" style="transform: none;"><g><path id="pxXyWkka3" d="M2988 6363 c-27 -2 -48 -8 -48 -14 0 -5 5 -9 11 -9 5 0 7 -4 4 -10 -6 -10 -2 -11 45 -15 35 -3 100 -25 100 -34 0 -4 19 -13 43 -20 64 -19 177 -73 171 -82 -3 -5 8 -11 23 -15 36 -8 154 -84 148 -94 -3 -5 5 -10 17 -12 13 -2 23 -7 22 -13 -1 -5 12 -15 28 -22 15 -7 27 -17 26 -22 -2 -6 13 -18 32 -28 19 -10 40 -28 46 -41 15 -30 55 -72 69 -72 14 0 107 -94 100 -102 -3 -3 13 -20 35 -39 50 -41 137 -130 130 -133 -3 -1 14 -19 37 -40 24 -21 40 -42 37 -47 -3 -5 2 -9 10 -9 17 0 48 -39 40 -52 -3 -4 -1 -8 4 -8 14 0 53 -41 47 -50 -3 -5 4 -14 15 -20 11 -6 18 -15 15 -20 -3 -5 3 -11 12 -14 19 -6 70 -74 65 -88 -1 -4 4 -8 12 -8 12 0 23 -14 24 -30 0 -3 16 -22 36 -43 20 -21 34 -43 31 -48 -4 -5 1 -9 9 -9 9 0 16 -4 16 -10 0 -5 0 -12 1 -15 0 -2 13 -18 29 -36 17 -17 27 -35 24 -40 -3 -5 2 -9 10 -9 14 0 18 -6 15 -26 0 -3 8 -12 18 -20 10 -7 15 -14 11 -14 -4 0 4 -11 18 -25 14 -14 23 -29 20 -34 -3 -5 1 -12 10 -15 8 -3 13 -10 10 -15 -3 -5 1 -12 10 -15 8 -3 12 -10 9 -16 -3 -5 1 -10 9 -10 14 0 20 -12 17 -32 0 -5 4 -8 10 -8 5 0 8 -4 5 -9 -3 -5 1 -12 10 -15 8 -3 12 -10 9 -16 -3 -5 0 -10 8 -10 15 0 60 -74 50 -84 -3 -3 0 -6 8 -6 15 0 44 -39 35 -47 -3 -4 1 -11 9 -17 20 -15 85 -127 80 -136 -3 -5 2 -11 11 -14 8 -3 12 -10 9 -16 -15 -23 35 -7 68 23 l37 32 -69 112 c-255 414 -573 823 -879 1130 -258 259 -488 459 -713 618 l-92 65 -86 -2 c-47 -1 -107 -3 -133 -5z"></path><path id="p23mj52sO" d="M3670 6329 c19 -17 87 -78 150 -135 125 -111 421 -409 567 -569 50 -55 94 -97 98 -93 4 3 12 140 17 303 10 251 9 298 -3 310 -24 24 -399 142 -555 175 -82 17 -185 33 -229 36 l-80 6 35 -33z"></path><path id="pYDmJTT38" d="M2398 6223 c-54 -20 -98 -38 -98 -42 0 -3 23 -18 51 -34 27 -15 47 -32 44 -37 -3 -6 3 -10 15 -10 12 0 18 -4 15 -10 -3 -5 3 -10 15 -10 12 0 18 -4 15 -10 -3 -5 3 -10 15 -10 12 0 19 -4 16 -9 -3 -5 8 -11 24 -15 17 -3 30 -12 30 -20 0 -7 11 -17 25 -20 14 -4 23 -11 20 -16 -3 -6 1 -10 10 -10 19 0 47 -25 38 -34 -4 -3 0 -6 8 -6 19 0 100 -70 93 -81 -3 -5 0 -9 7 -9 13 0 84 -60 72 -61 -4 0 0 -4 10 -8 10 -4 17 -10 15 -13 -5 -9 33 -48 47 -48 14 0 61 -49 57 -58 -2 -4 4 -11 13 -17 27 -15 120 -117 118 -126 -2 -5 3 -9 10 -9 15 0 84 -80 79 -93 -1 -4 9 -12 24 -17 14 -6 22 -14 19 -20 -3 -5 0 -10 7 -10 14 0 44 -39 40 -52 -1 -4 10 -15 26 -25 15 -9 36 -28 48 -42 14 -16 27 -22 38 -18 14 6 11 15 -25 64 -273 372 -516 667 -727 881 -50 50 -97 92 -104 91 -7 0 -57 -17 -110 -36z"></path><path id="pR1wSDVGs" d="M4736 6022 c-2 -4 -7 -45 -10 -92 -35 -462 -46 -609 -46 -635 0 -22 24 -63 86 -149 119 -166 272 -389 317 -463 40 -66 46 -70 65 -51 17 17 15 38 -4 38 -8 0 -13 4 -9 10 3 5 -3 18 -14 29 -11 11 -17 22 -14 25 3 3 -1 8 -10 12 -9 3 -13 12 -10 20 3 8 -1 14 -11 14 -9 0 -13 6 -10 14 3 8 -4 20 -15 28 -12 8 -18 18 -15 21 4 4 -1 9 -10 13 -9 3 -13 10 -10 15 3 5 -2 12 -10 15 -9 3 -13 10 -10 15 3 5 -1 12 -10 15 -8 3 -12 12 -9 20 3 8 -1 14 -11 14 -10 0 -13 6 -10 15 4 9 0 15 -10 15 -10 0 -13 6 -10 15 4 9 0 15 -10 15 -10 0 -13 6 -10 15 4 9 0 15 -10 15 -10 0 -13 6 -10 15 4 9 0 15 -10 15 -9 0 -13 6 -10 13 3 8 -8 28 -23 44 -15 17 -30 39 -31 49 -2 11 -7 24 -10 29 -4 6 -7 175 -7 377 0 336 1 368 17 380 16 12 13 16 -32 40 -27 15 -51 24 -54 20z"></path><path id="psNk4oqLS" d="M1941 5503 c-22 -134 -76 -345 -108 -421 l-15 -37 24 25 c13 14 23 28 21 33 -2 4 1 7 7 7 6 0 8 5 5 10 -3 6 -2 10 3 10 9 0 27 47 24 63 -1 4 3 7 9 7 5 0 8 4 5 9 -4 5 -2 11 3 13 5 1 11 12 13 23 1 11 7 23 11 26 4 3 9 16 10 27 1 12 5 22 10 22 5 0 7 7 3 15 -3 8 0 15 6 15 6 0 8 3 5 7 -4 3 -2 12 4 20 6 7 8 13 4 13 -4 0 -2 7 5 15 7 8 9 15 5 15 -4 0 -2 7 5 15 7 8 9 15 5 15 -4 0 -2 6 4 13 6 8 12 23 14 34 2 12 9 29 17 38 12 14 8 22 -31 61 l-44 44 -24 -137z"></path><path id="pYyBcF93T" d="M3695 5510 c-12 -13 -14 -20 -5 -20 6 0 10 -6 7 -14 -3 -8 1 -17 10 -20 9 -4 13 -9 10 -12 -3 -3 3 -14 14 -25 11 -11 17 -24 14 -29 -4 -6 1 -13 9 -16 9 -3 13 -10 10 -15 -3 -5 0 -9 6 -9 6 0 8 -4 5 -10 -3 -5 1 -10 9 -10 9 0 16 -4 16 -10 0 -20 3 -25 22 -39 11 -7 17 -19 14 -26 -2 -7 2 -16 10 -19 9 -3 12 -10 9 -16 -3 -5 -1 -10 5 -10 6 0 9 -4 6 -9 -3 -5 1 -12 10 -15 8 -3 12 -10 9 -16 -3 -5 -2 -10 4 -10 11 0 48 -49 53 -70 2 -7 11 -22 21 -32 10 -10 15 -23 12 -28 -4 -6 -1 -10 6 -10 7 0 9 -3 6 -7 -4 -3 2 -13 14 -21 11 -8 18 -20 15 -27 -2 -7 2 -16 10 -19 9 -3 12 -10 9 -16 -3 -5 0 -10 7 -10 13 0 62 -82 63 -105 0 -5 5 -14 12 -20 7 -5 13 -17 15 -25 2 -8 11 -21 20 -30 9 -8 18 -24 20 -35 2 -11 9 -26 16 -35 7 -8 12 -19 11 -24 0 -5 3 -12 8 -15 17 -11 53 -82 48 -92 -4 -5 -1 -9 5 -9 6 0 8 -4 5 -10 -3 -5 -1 -10 5 -10 6 0 8 -4 5 -10 -3 -5 -1 -10 6 -10 7 0 9 -3 6 -7 -4 -3 0 -11 7 -17 21 -16 107 -186 101 -197 -4 -5 -1 -9 6 -9 7 0 10 -3 7 -6 -4 -3 2 -14 13 -25 11 -11 17 -24 14 -29 -4 -6 1 -10 9 -10 8 0 19 -8 25 -17 16 -29 25 -6 13 34 -6 21 -116 245 -244 498 -127 253 -266 528 -307 612 -71 141 -78 152 -104 152 -16 1 -26 5 -23 10 3 5 -7 11 -23 14 -16 3 -36 13 -44 22 -20 19 -20 19 -42 -5z"></path><path id="pLEq2YqOc" d="M5795 5109 c4 -6 -1 -16 -11 -23 -9 -7 -19 -24 -20 -37 -1 -13 -5 -40 -8 -59 -3 -19 -7 -47 -9 -62 -2 -15 -6 -30 -9 -34 -4 -3 -2 -19 4 -34 8 -23 15 -28 40 -28 16 1 33 -4 37 -10 4 -6 16 -10 27 -10 25 2 84 -21 84 -33 0 -5 9 -9 21 -9 11 0 17 -4 14 -10 -4 -6 7 -10 25 -10 l32 0 -37 68 c-45 80 -185 302 -192 302 -2 0 -1 -5 2 -11z"></path><path id="p98ywPFqv" d="M773 4988 c-72 -110 -123 -198 -123 -213 0 -11 32 -4 74 15 42 19 82 30 121 34 37 3 65 17 65 32 0 8 -4 14 -9 14 -5 0 -7 9 -4 20 3 11 1 20 -4 20 -6 0 -8 11 -5 25 2 14 0 25 -5 25 -6 0 -8 11 -5 25 2 14 0 25 -5 25 -6 0 -8 11 -5 25 3 16 0 25 -8 25 -8 0 -10 9 -6 25 4 14 5 25 3 25 -2 0 -40 -55 -84 -122z"></path><path id="pAaksnPMN" d="M730 4271 c-83 -9 -137 -32 -216 -92 -28 -22 -55 -39 -61 -39 -5 0 -19 -13 -30 -28 -20 -27 -83 -146 -83 -157 0 -16 43 0 100 38 102 68 252 142 309 152 19 3 42 10 52 16 11 5 19 7 19 4 0 -3 16 1 35 9 19 8 35 13 35 10 0 -2 16 2 35 10 20 9 38 15 40 16 3 0 6 0 8 1 1 0 13 3 27 5 14 3 32 11 40 20 23 22 -2 34 -75 34 -33 0 -82 2 -110 4 -27 2 -84 1 -125 -3z"></path><path id="p1COexpx30" d="M5715 4275 c-5 -2 -36 -6 -67 -10 -73 -8 -77 -28 -8 -46 28 -7 50 -17 50 -22 0 -5 9 -7 20 -4 10 3 20 1 22 -5 2 -5 23 -11 48 -14 24 -2 47 -9 51 -15 3 -6 22 -12 42 -14 48 -5 77 -14 77 -26 0 -5 11 -9 25 -9 14 0 25 -4 25 -10 0 -5 9 -10 20 -10 25 0 90 -31 85 -40 -3 -4 9 -10 26 -14 17 -3 28 -10 24 -16 -3 -5 3 -10 15 -10 12 0 18 -4 15 -10 -3 -5 1 -10 10 -10 9 0 14 -4 11 -9 -3 -5 8 -11 25 -15 17 -3 28 -10 24 -16 -4 -6 6 -10 24 -10 40 0 39 11 -5 99 -23 47 -45 76 -63 86 -16 8 -55 37 -87 64 -81 69 -152 91 -292 90 -59 0 -111 -2 -117 -4z"></path><path id="p8YjZ9Zgk" d="M2872 4168 c-7 -7 -12 -15 -12 -18 0 -3 29 -28 65 -54 36 -26 65 -52 65 -57 0 -5 -23 2 -52 17 -93 47 -123 55 -148 37 -22 -15 -19 -17 97 -77 153 -79 300 -176 267 -176 -4 0 -59 26 -123 59 -64 32 -149 70 -189 85 -72 26 -142 34 -142 17 0 -14 20 -25 95 -56 197 -80 343 -163 520 -295 139 -104 251 -214 354 -347 35 -46 67 -83 71 -83 8 0 20 35 20 60 0 13 -2 13 -9 1 -8 -12 -14 -13 -35 -3 -15 6 -26 15 -25 19 3 21 -3 31 -21 36 -11 3 -20 9 -19 14 4 21 -3 31 -23 36 -12 4 -19 9 -15 13 9 10 -17 44 -45 58 -13 6 -23 16 -23 21 0 17 -68 95 -82 95 -8 0 -12 4 -8 9 3 5 -7 19 -22 31 -16 12 -28 25 -29 28 -3 23 -20 45 -40 53 -13 5 -24 12 -23 16 3 21 -3 32 -21 38 -11 3 -19 9 -18 13 3 17 -17 44 -40 53 -14 5 -22 12 -19 16 9 8 -32 63 -47 63 -14 0 -52 38 -48 49 5 13 -99 120 -120 123 -13 2 -23 9 -23 17 0 14 -15 25 -48 35 -10 3 -16 10 -13 15 4 5 -7 19 -23 30 -34 25 -34 24 -49 9z"></path><path id="phT8mayFN" d="M1170 3988 c-91 -114 -130 -228 -130 -379 0 -165 33 -304 114 -484 18 -38 36 -81 42 -94 9 -21 11 -22 17 -8 3 9 2 17 -2 17 -5 0 -7 9 -4 20 3 11 1 20 -5 20 -6 0 -8 9 -5 20 3 11 1 20 -4 20 -6 0 -8 11 -5 25 2 14 0 25 -5 25 -22 0 -21 323 1 359 4 6 5 15 1 20 -3 5 -1 12 5 16 6 4 8 11 5 16 -4 5 -1 9 4 9 6 0 10 3 9 8 -2 10 35 86 45 90 4 2 5 8 1 13 -3 5 -1 9 5 9 5 0 15 16 22 35 7 19 17 35 22 35 4 0 5 5 2 10 -3 6 -1 10 5 10 6 0 8 5 5 10 -3 6 -1 10 5 10 6 0 9 4 6 8 -2 4 6 17 18 27 l23 20 -30 45 c-38 57 -97 120 -113 120 -7 0 -31 -24 -54 -52z"></path><path id="p15pS5bSBl" d="M5397 4020 c-15 -12 -47 -48 -72 -80 -39 -51 -44 -63 -35 -80 6 -11 8 -25 5 -30 -3 -6 -1 -10 6 -10 7 0 10 -3 7 -6 -3 -3 5 -17 18 -31 14 -15 22 -33 20 -40 -3 -7 -1 -13 3 -13 13 0 52 -70 46 -81 -4 -5 -2 -9 4 -9 12 0 45 -86 37 -99 -4 -5 -2 -12 3 -16 6 -3 11 -22 11 -43 4 -92 3 -192 -3 -247 -4 -33 -7 -70 -7 -82 0 -12 -4 -24 -9 -28 -5 -3 -7 -14 -4 -24 3 -10 0 -22 -6 -25 -5 -4 -8 -13 -5 -20 3 -8 0 -17 -5 -21 -6 -3 -9 -10 -6 -15 3 -5 1 -19 -5 -30 -8 -16 -8 -20 3 -20 17 0 108 182 142 282 44 128 59 217 59 348 0 100 -4 139 -22 195 -23 74 -81 171 -130 218 l-29 28 -26 -21z"></path><path id="pwkWIHOgs" d="M715 3549 c-187 -115 -261 -184 -317 -293 -49 -97 -70 -195 -69 -326 0 -114 23 -293 48 -374 5 -19 6 -19 17 0 6 10 12 39 14 64 2 25 4 63 6 85 1 22 6 48 10 58 5 9 5 28 2 41 -3 14 -1 28 5 31 5 4 9 17 8 28 -1 12 1 30 5 39 4 9 5 21 2 27 -4 5 -1 13 5 16 5 4 8 13 5 21 -3 8 -1 14 5 14 6 0 9 7 5 15 -3 8 -1 15 5 15 6 0 9 7 5 15 -3 8 -2 15 3 15 9 0 26 48 23 63 -1 4 2 7 7 7 5 0 15 15 22 33 7 17 56 77 109 131 52 55 103 107 112 117 20 22 51 79 42 79 -4 0 -1 7 6 15 6 8 9 18 6 23 -3 5 4 19 15 30 14 15 18 29 13 47 -3 14 -9 25 -13 25 -4 0 -52 -28 -106 -61z"></path><path id="phH4MUazT" d="M5818 3598 c0 -7 -2 -17 -2 -23 -1 -5 -5 -15 -8 -21 -4 -6 -1 -20 7 -30 8 -10 15 -26 15 -34 0 -8 9 -32 20 -53 11 -20 18 -37 16 -37 -5 0 141 -146 174 -173 11 -10 18 -22 15 -27 -4 -6 1 -10 9 -10 14 0 33 -35 28 -52 -1 -5 3 -8 10 -8 6 0 9 -3 5 -6 -3 -3 4 -15 14 -25 11 -11 18 -26 16 -32 -2 -7 3 -18 10 -26 8 -7 12 -20 9 -27 -3 -8 -1 -14 5 -14 6 0 9 -7 5 -15 -3 -8 0 -15 5 -15 6 0 9 -9 6 -20 -3 -11 -1 -23 5 -26 5 -4 7 -19 4 -35 -3 -15 -1 -31 5 -34 5 -4 10 -21 10 -38 0 -18 2 -54 5 -82 3 -27 6 -72 8 -100 2 -27 6 -58 10 -67 5 -10 6 -25 2 -33 -3 -8 -1 -15 5 -15 6 0 7 -4 4 -10 -3 -5 1 -10 9 -10 9 0 18 10 21 22 53 240 69 475 41 588 -48 193 -168 327 -417 468 -63 36 -68 37 -71 20z"></path><path id="pwfZ8dwqw" d="M3255 3373 c-118 -25 -243 -100 -340 -205 -85 -92 -134 -176 -180 -308 -60 -172 -72 -430 -25 -508 24 -39 35 -40 53 -3 13 26 12 30 -3 41 -11 8 -15 21 -12 37 2 13 -1 35 -8 47 -8 15 -10 44 -6 82 3 33 7 73 9 89 1 17 6 36 10 42 5 7 6 17 2 22 -3 5 0 13 6 16 5 4 8 13 5 21 -3 7 -1 16 5 19 5 4 7 11 4 16 -4 5 -1 9 5 9 7 0 10 7 6 15 -3 8 -1 15 5 15 6 0 7 5 4 10 -3 6 -1 10 5 10 6 0 8 5 5 10 -3 6 -1 10 4 10 6 0 11 9 11 20 0 11 5 20 11 20 5 0 7 5 4 10 -3 6 -2 10 4 10 5 0 13 10 17 22 3 12 12 27 18 34 6 6 18 22 26 34 8 12 23 32 34 43 10 12 30 37 44 56 45 58 176 164 260 211 45 25 82 48 82 53 0 7 -31 8 -65 0z"></path></g></g></svg>