<svg class="img-fluid" id="outputsvg" xmlns="http://www.w3.org/2000/svg" style="transform: none; transform-origin: 50% 50%; cursor: move; max-height: none;" width="1025" height="238" viewBox="0 0 10250 2380"><g id="l3rw6EUP3RG3KAa3htsgqzq" fill="rgb(18,59,51)" style="transform: none;"><g><path id="p1F5Swv1Yr" d="M1050 2363 c-425 -68 -781 -340 -946 -721 -84 -195 -114 -433 -80 -632 101 -576 601 -1000 1181 -1000 328 0 677 168 884 426 191 236 281 479 281 753 0 124 -11 196 -46 318 -146 507 -625 868 -1143 862 -58 -1 -117 -4 -131 -6z m154 -177 c63 -50 276 -245 232 -213 -5 4 -25 7 -43 7 -31 0 -33 -2 -33 -35 0 -20 12 -59 26 -88 31 -62 23 -55 -42 38 -72 104 -161 223 -216 286 -26 31 -48 59 -48 63 0 22 54 -3 124 -58z m306 9 c30 -9 59 -21 63 -25 5 -4 7 -28 5 -54 l-3 -47 -75 77 c-41 42 -68 75 -60 72 8 -3 40 -13 70 -23z m-554 -72 l69 -77 -87 70 c-67 53 -82 71 -70 76 10 4 18 7 18 7 1 1 32 -34 70 -76z m862 -94 c47 -35 82 -68 82 -77 0 -23 -35 -148 -53 -191 l-14 -34 -62 91 c-40 59 -61 101 -61 120 0 51 13 152 19 152 3 0 43 -28 89 -61z m-951 -369 c-35 -36 -73 -78 -85 -93 l-21 -29 -54 31 c-29 17 -62 40 -72 51 -19 21 -19 22 7 68 26 47 61 147 73 211 l7 34 104 -104 103 -103 -62 -66z m-473 35 c7 -18 6 -18 -4 -2 -12 19 -69 23 -101 7 -25 -14 -24 -8 8 43 54 84 55 84 74 25 9 -29 20 -62 23 -73z m1682 59 c40 -62 41 -69 13 -53 -12 6 -39 9 -60 7 -32 -3 -38 -1 -34 12 4 8 11 34 18 57 6 23 15 39 20 36 5 -3 24 -29 43 -59z m-400 -84 c26 -39 45 -73 41 -76 -3 -3 -12 5 -20 18 -86 141 -99 175 -21 58z m-433 -190 c41 -27 85 -54 99 -60 l24 -12 -23 -45 c-13 -26 -23 -64 -23 -86 l0 -40 -57 55 c-32 30 -70 62 -85 72 -16 10 -28 27 -28 37 0 10 -13 25 -30 34 -16 9 -30 23 -30 33 0 15 53 60 72 61 4 1 41 -21 81 -49z m-915 -6 c-23 -23 -156 -79 -166 -69 -8 8 24 43 62 68 29 19 54 27 86 27 l45 0 -27 -26z m1828 0 c37 -24 70 -61 62 -69 -10 -10 -143 46 -166 69 l-27 26 46 0 c32 0 57 -8 85 -26z m-1386 -158 c0 -68 16 -122 52 -173 l29 -43 -33 -67 c-33 -67 -33 -68 -33 -218 l0 -151 37 -76 c45 -90 94 -138 187 -181 62 -30 73 -32 186 -32 115 0 123 1 186 32 81 40 140 102 182 191 32 66 32 69 32 217 0 150 0 151 -33 217 l-33 66 31 48 c37 59 50 103 50 170 l0 50 73 32 c53 23 65 26 45 11 -48 -35 -33 -103 55 -264 53 -96 81 -160 103 -228 18 -57 18 -58 53 -55 31 3 36 7 50 49 l16 46 77 -85 77 -84 -26 -52 c-78 -155 -231 -331 -363 -418 -296 -195 -607 -239 -913 -128 -256 94 -484 295 -605 536 l-31 61 77 85 77 85 15 -46 c14 -42 18 -46 51 -49 l37 -3 22 73 c12 40 47 120 78 178 107 196 123 262 75 299 -21 16 -10 13 45 -11 l72 -31 0 -51z m-303 18 c16 -43 13 -167 -4 -198 -9 -16 -14 -11 -33 40 -26 70 -30 127 -11 172 17 41 30 37 48 -14z m1493 16 c17 -40 8 -132 -18 -188 -22 -48 -26 -44 -42 40 -7 34 -5 62 6 104 22 86 33 95 54 44z m-1680 -172 c0 -64 -25 -121 -76 -178 -33 -37 -39 -40 -45 -23 -14 34 -9 108 10 149 17 36 84 104 103 104 5 0 8 -24 8 -52z m1872 22 c64 -53 91 -140 69 -219 -6 -23 -7 -23 -43 17 -56 61 -78 112 -78 177 0 30 3 55 8 55 4 0 24 -13 44 -30z m-796 -163 c13 -26 27 -67 30 -90 l6 -43 -60 4 c-38 3 -72 -1 -91 -9 -29 -13 -31 -17 -31 -71 0 -51 -2 -58 -20 -58 -18 0 -20 7 -20 58 l0 59 -39 13 c-22 7 -62 11 -90 8 -60 -6 -60 -5 -30 84 21 64 71 138 92 138 7 0 4 -5 -5 -11 -26 -15 -25 -79 2 -86 15 -4 20 -14 20 -39 l0 -34 75 0 75 0 0 35 c0 19 5 35 10 35 6 0 10 20 10 45 0 33 -4 45 -15 45 -8 0 -15 8 -15 17 0 26 67 -43 96 -100z"></path><path id="p12oQoGUFv" d="M2840 1660 c-125 -21 -214 -100 -233 -207 l-6 -33 89 0 c85 0 90 1 90 21 0 12 15 36 34 55 31 31 39 34 94 34 50 0 66 -4 91 -26 27 -22 31 -32 31 -74 0 -66 -30 -89 -173 -134 -126 -40 -181 -71 -217 -124 -22 -31 -25 -47 -25 -118 0 -75 3 -86 30 -126 19 -26 52 -54 85 -73 47 -25 69 -30 146 -33 112 -5 178 14 237 67 42 38 76 100 77 139 0 21 -3 22 -89 22 l-88 0 -6 -30 c-8 -35 -42 -60 -96 -67 -85 -12 -131 21 -131 92 0 64 26 84 167 131 192 63 253 120 253 237 0 130 -81 220 -225 246 -64 12 -70 12 -135 1z"></path><path id="ptw0YtPKi" d="M4333 1661 c-89 -23 -168 -97 -205 -191 -28 -73 -31 -203 -5 -278 27 -76 103 -155 175 -182 102 -39 214 -18 290 53 l32 31 0 -47 0 -47 85 0 85 0 0 330 0 330 -85 0 -85 0 0 -51 0 -52 -21 27 c-47 59 -182 99 -266 77z m170 -145 c78 -28 117 -91 117 -186 0 -75 -16 -116 -63 -157 -88 -77 -235 -39 -278 74 -29 76 3 202 62 244 55 39 102 46 162 25z"></path><path id="pdi6HbrEd" d="M6670 1660 c-125 -21 -214 -100 -233 -207 l-6 -33 89 0 c85 0 90 1 90 21 0 12 15 36 34 55 31 31 39 34 94 34 50 0 66 -4 91 -26 27 -22 31 -32 31 -74 0 -66 -30 -89 -173 -134 -126 -40 -181 -71 -217 -124 -22 -31 -25 -47 -25 -118 0 -75 3 -86 30 -126 19 -26 52 -54 85 -73 47 -25 69 -30 146 -33 112 -5 178 14 237 67 42 38 76 100 77 139 0 21 -3 22 -89 22 l-88 0 -6 -30 c-8 -35 -42 -60 -96 -67 -85 -12 -131 21 -131 92 0 64 26 84 167 131 192 63 253 120 253 237 0 130 -81 220 -225 246 -64 12 -70 12 -135 1z"></path><path id="pHKK8CkLB" d="M7363 1661 c-89 -23 -168 -97 -205 -191 -28 -73 -31 -203 -5 -278 27 -76 103 -155 175 -182 102 -39 214 -18 290 53 l32 31 0 -47 0 -47 85 0 85 0 0 330 0 330 -85 0 -85 0 0 -51 0 -52 -21 27 c-47 59 -182 99 -266 77z m170 -145 c78 -28 117 -91 117 -186 0 -75 -16 -116 -63 -157 -88 -77 -235 -39 -278 74 -29 76 3 202 62 244 55 39 102 46 162 25z"></path><path id="p1AkxInY8y" d="M8183 1661 c-89 -23 -168 -97 -205 -191 -28 -73 -31 -203 -5 -278 27 -76 103 -155 175 -182 102 -39 214 -18 290 53 l32 31 0 -47 0 -47 85 0 85 0 0 330 0 330 -85 0 -85 0 0 -51 0 -52 -21 27 c-47 59 -182 99 -266 77z m170 -145 c78 -28 117 -91 117 -186 0 -75 -16 -116 -63 -157 -88 -77 -235 -39 -278 74 -29 76 3 202 62 244 55 39 102 46 162 25z"></path><path id="pR5hO6b38" d="M3360 1220 l0 -440 80 0 80 0 0 152 0 152 28 -26 c52 -49 91 -63 177 -63 94 0 144 22 194 82 53 64 61 110 61 360 l0 223 -80 0 -80 0 0 -197 c0 -109 -5 -214 -10 -234 -5 -19 -23 -48 -40 -64 -26 -25 -40 -30 -93 -33 -48 -2 -69 1 -93 16 -58 37 -64 66 -64 301 l0 211 -80 0 -80 0 0 -440z"></path><path id="piUiTVfly" d="M4960 1220 l0 -440 80 0 80 0 0 252 0 251 112 -141 112 -142 105 0 104 0 -20 23 c-79 85 -263 301 -263 307 0 5 63 78 140 165 77 86 140 158 140 161 0 2 -45 4 -100 4 l-100 0 -112 -141 -113 -141 -3 141 -3 141 -79 0 -80 0 0 -440z"></path><path id="p13M17u0qI" d="M5823 1650 c-53 -12 -95 -43 -117 -85 -19 -36 -21 -60 -24 -237 l-4 -198 -39 0 -39 0 0 -65 0 -65 40 0 40 0 0 -80 0 -80 80 0 80 0 0 80 0 80 75 0 75 0 0 65 0 65 -76 0 -76 0 4 178 c2 133 7 183 17 195 10 12 30 17 72 17 l59 0 0 70 0 70 -67 -1 c-38 -1 -82 -4 -100 -9z"></path><path id="pmK2WT8d" d="M6120 1330 l0 -330 80 0 80 0 0 330 0 330 -80 0 -80 0 0 -330z"></path><path id="p4GngmK1U" d="M8973 1650 c-53 -12 -95 -43 -117 -85 -19 -36 -21 -60 -24 -237 l-4 -198 -39 0 -39 0 0 -65 0 -65 40 0 40 0 0 -80 0 -80 80 0 80 0 0 80 0 80 75 0 75 0 0 65 0 65 -76 0 -76 0 4 178 c2 133 7 183 17 195 10 12 30 17 72 17 l59 0 0 70 0 70 -67 -1 c-38 -1 -82 -4 -100 -9z"></path><path id="pray5X0Jt" d="M9270 1220 l0 -440 80 0 80 0 0 152 0 152 28 -26 c52 -49 91 -63 177 -63 94 0 144 22 194 82 53 64 61 110 61 360 l0 223 -80 0 -80 0 0 -197 c0 -109 -5 -214 -10 -234 -5 -19 -23 -48 -40 -64 -26 -25 -40 -30 -93 -33 -48 -2 -69 1 -93 16 -58 37 -64 66 -64 301 l0 211 -80 0 -80 0 0 -440z"></path><path id="p10EGyj5om" d="M10060 1330 l0 -330 80 0 80 0 0 330 0 330 -80 0 -80 0 0 -330z"></path><path id="pEnyeDInM" d="M6160 909 c-62 -25 -80 -106 -34 -152 74 -74 201 0 165 96 -18 46 -84 75 -131 56z"></path><path id="p1GXVVu40y" d="M10100 909 c-62 -25 -80 -106 -34 -152 74 -74 201 0 165 96 -18 46 -84 75 -131 56z"></path></g></g><g id="l6ws4ihU7MfVNbKtxbE8OVS" fill="rgb(247,244,227)" style="transform: none;"><g><path id="ppWWKiN3" d="M1033 2273 c-13 -2 -23 -7 -23 -11 0 -4 25 -36 56 -72 130 -152 291 -376 415 -582 79 -130 95 -145 122 -118 5 4 -41 107 -102 229 -61 121 -111 224 -111 228 0 14 92 -83 139 -147 27 -36 74 -109 105 -162 32 -54 63 -98 69 -98 7 0 25 11 41 24 l30 23 -34 54 c-67 106 -169 245 -238 324 -95 108 -294 285 -321 285 -7 0 -19 7 -27 15 -15 14 -69 18 -121 8z"></path><path id="p10DmIAFnN" d="M818 2213 c-21 -8 -38 -18 -38 -22 0 -3 22 -22 47 -41 88 -66 198 -162 353 -308 85 -81 143 -131 130 -112 -162 234 -302 408 -336 416 -12 3 -25 12 -28 19 -4 12 -79 66 -88 64 -2 0 -20 -7 -40 -16z"></path><path id="p5oS7hW2A" d="M1688 2013 l-3 -138 70 -107 c39 -59 75 -108 81 -108 22 0 104 244 104 308 0 11 -17 33 -37 50 -69 54 -186 132 -199 132 -10 0 -14 -33 -16 -137z"></path><path id="p11hWSP9IN" d="M778 2064 c6 -11 73 -83 149 -161 146 -148 285 -264 418 -349 84 -54 185 -108 185 -99 0 3 -66 58 -147 122 -82 65 -209 169 -283 233 -74 64 -171 145 -215 180 -44 35 -89 71 -99 79 -18 15 -18 15 -8 -5z"></path><path id="p5por260X" d="M702 1983 c-5 -10 -13 -34 -17 -53 -13 -70 -37 -137 -78 -217 l-41 -83 33 -34 c18 -19 65 -50 104 -71 l72 -36 29 38 c16 21 65 74 108 117 l79 79 -133 136 c-73 75 -136 137 -140 139 -4 2 -11 -5 -16 -15z"></path><path id="psJjUS2Gr" d="M321 1848 c-23 -28 -44 -62 -47 -75 -4 -12 -10 -23 -16 -23 -11 0 -73 -129 -65 -136 3 -3 37 11 76 30 39 20 72 36 74 36 3 0 21 -29 42 -64 53 -91 115 -157 195 -211 39 -25 68 -50 64 -56 -3 -6 2 -16 11 -23 9 -7 21 -34 26 -60 8 -46 7 -51 -21 -83 -39 -44 -72 -111 -99 -197 -26 -86 -29 -279 -6 -370 50 -192 214 -364 406 -427 66 -21 91 -24 234 -24 149 1 165 3 234 28 195 71 346 233 395 423 22 84 22 291 0 365 -21 68 -63 153 -102 202 -26 32 -29 43 -25 80 3 23 13 49 22 57 10 9 16 21 14 27 -2 6 27 33 66 58 84 55 149 125 197 211 20 35 38 64 40 64 3 0 36 -16 75 -36 39 -19 74 -33 77 -29 11 11 -56 133 -78 140 -14 5 -19 12 -15 25 4 11 -9 35 -35 69 -22 28 -42 51 -45 51 -2 0 -16 -39 -30 -87 -61 -199 -141 -296 -307 -373 l-96 -44 -4 -71 c-5 -79 -41 -160 -87 -196 -21 -17 -23 -23 -13 -37 75 -106 97 -183 90 -314 -9 -154 -88 -277 -217 -341 -60 -29 -74 -32 -156 -32 -79 1 -98 5 -156 32 -92 43 -142 91 -187 181 -37 75 -37 77 -37 197 0 116 1 123 32 186 18 36 41 73 52 83 19 17 19 18 -18 55 -51 51 -74 104 -79 187 l-4 70 -98 46 c-171 81 -249 179 -310 386 -11 39 -23 72 -25 72 -2 0 -22 -23 -44 -52z"></path><path id="pappwyCPo" d="M954 1576 c-52 -52 -94 -102 -94 -112 0 -13 10 -8 43 19 23 20 74 60 114 89 39 29 72 58 72 65 1 7 -8 17 -20 23 -19 10 -30 2 -115 -84z"></path><path id="p1ADIwW3Zl" d="M1090 1533 l-72 -46 23 -19 24 -18 -27 9 c-45 16 -24 -10 32 -42 28 -16 50 -30 50 -33 0 -3 -9 0 -19 6 -25 13 -31 13 -31 0 0 -6 8 -14 18 -17 31 -12 126 -89 190 -156 35 -37 65 -61 67 -54 2 7 5 42 7 79 3 53 10 76 36 118 18 28 30 56 26 61 -3 5 -20 16 -37 25 -18 9 -64 38 -103 64 -115 77 -102 75 -184 23z"></path><path id="p4AhlTb0U" d="M241 1511 c-74 -26 -103 -51 -124 -106 -10 -26 -16 -51 -15 -55 2 -4 54 10 117 30 104 33 118 41 160 85 l46 49 -25 7 c-45 13 -104 9 -159 -10z"></path><path id="pLaJhrAkB" d="M1983 1523 c-13 -2 -23 -8 -23 -12 0 -4 20 -27 45 -51 39 -38 61 -49 158 -81 61 -20 114 -35 116 -33 8 7 -33 106 -47 111 -8 4 -23 14 -33 24 -28 28 -160 54 -216 42z"></path><path id="pxInW2ank" d="M990 1422 c0 -11 61 -32 73 -25 5 3 -5 12 -23 19 -37 16 -50 17 -50 6z"></path><path id="pTotWZup4" d="M430 1368 c-70 -77 -67 -64 -41 -180 10 -44 56 -148 66 -148 3 0 15 19 27 43 41 78 34 317 -9 317 -7 0 -27 -15 -43 -32z"></path><path id="p1DxFxUlsy" d="M1879 1353 c-21 -71 -16 -187 11 -255 12 -32 25 -58 30 -58 5 0 21 26 35 57 25 51 27 65 22 137 -3 60 -10 92 -28 123 -32 57 -53 56 -70 -4z"></path><path id="p11g27ekpU" d="M220 1228 c-33 -35 -60 -69 -60 -75 0 -7 -4 -13 -9 -13 -35 0 -40 -214 -7 -248 12 -11 116 102 141 152 20 40 25 65 25 125 0 83 -7 121 -22 121 -5 0 -36 -28 -68 -62z"></path><path id="pLpXztwdP" d="M2077 1263 c-4 -3 -7 -45 -7 -92 0 -77 3 -91 29 -136 16 -27 52 -72 80 -100 65 -63 74 -54 68 66 -5 98 -28 153 -98 227 -38 40 -58 50 -72 35z"></path><path id="pJmzivM0v" d="M1104 1181 c-28 -16 -62 -45 -77 -64 -41 -53 -70 -152 -65 -220 5 -74 21 -86 111 -87 52 0 67 -3 67 -15 0 -21 -32 -35 -80 -35 l-41 0 59 -55 c34 -31 69 -75 83 -105 13 -27 26 -50 30 -50 3 0 16 22 28 50 15 32 45 70 87 108 l64 58 -38 -4 c-47 -4 -92 12 -92 34 0 14 7 15 38 11 20 -4 51 -2 67 2 28 9 27 9 -15 10 -25 1 -56 8 -68 17 l-23 16 26 14 c15 8 37 14 50 14 29 0 77 -38 68 -53 -3 -7 4 -3 16 8 21 18 23 26 19 100 -7 123 -67 221 -160 259 -55 23 -97 19 -154 -13z m124 -58 c2 -9 -10 -13 -43 -13 -42 0 -46 2 -35 16 15 18 71 15 78 -3z m32 -48 c0 -12 -14 -15 -69 -15 -65 0 -90 8 -74 24 3 3 37 6 75 6 54 0 68 -3 68 -15z m-30 -70 c11 -13 6 -15 -34 -15 -43 0 -55 7 -39 23 12 13 60 7 73 -8z m-121 -138 c30 -13 31 -14 13 -30 -27 -25 -132 -22 -132 4 0 11 50 38 71 39 9 0 31 -6 48 -13z m109 -158 c4 -35 -22 -45 -48 -19 -26 26 -16 52 19 48 20 -2 27 -9 29 -29z"></path><path id="pdYwunyDP" d="M507 1065 c-24 -50 -20 -58 4 -12 11 22 19 41 17 43 -3 2 -12 -12 -21 -31z"></path><path id="pEoBYcHKG" d="M1856 1080 c4 -14 13 -36 21 -50 l14 -25 -7 25 c-4 14 -13 36 -21 50 l-14 25 7 -25z"></path></g></g><g id="l5uatASYD6wtcmNHQlLmNXX" fill="rgb(86,155,114)" style="transform: none;"><g><path id="pEDkqio3c" d="M642 1365 c11 -11 -27 -102 -91 -221 -33 -60 -69 -142 -82 -183 -19 -66 -23 -72 -35 -56 -7 10 -19 42 -25 72 -7 30 -16 56 -20 59 -4 2 -18 -10 -31 -28 -12 -18 -58 -71 -100 -118 -43 -47 -78 -91 -78 -98 0 -19 68 -150 113 -217 53 -78 186 -215 263 -270 198 -142 407 -208 649 -207 398 1 773 243 964 619 17 35 31 68 31 76 0 7 -35 51 -78 98 -42 46 -88 99 -101 117 -27 38 -33 35 -50 -27 -30 -105 -30 -105 -65 -6 -18 50 -50 122 -72 160 -50 90 -59 109 -87 176 -20 51 -24 56 -45 48 -25 -9 -25 -9 -41 -93 l-11 -60 39 -50 c47 -62 83 -133 105 -205 21 -71 21 -224 0 -305 -49 -190 -200 -352 -395 -423 -66 -24 -88 -27 -204 -28 -111 0 -141 3 -204 24 -192 63 -356 235 -406 427 -44 169 2 385 109 513 20 24 36 44 36 44 0 18 -31 142 -37 147 -11 10 -60 25 -51 15z"></path></g></g><g id="l1WGbpM7Ajdducj6FUwsx7A" fill="rgb(195,192,164)" style="transform: none;"><g><path id="p3hjwkKjr" d="M1060 2272 c0 -4 16 -14 35 -21 19 -7 35 -17 35 -22 0 -5 11 -9 25 -9 14 0 25 -4 25 -9 0 -5 11 -12 25 -15 14 -4 23 -10 20 -15 -2 -5 7 -12 20 -15 14 -4 23 -11 20 -16 -3 -6 0 -10 7 -10 15 0 117 -100 102 -100 -5 0 2 -6 16 -13 14 -8 24 -19 22 -25 -1 -7 3 -12 10 -12 16 0 59 -50 52 -61 -3 -5 1 -9 8 -9 15 -1 74 -77 70 -91 -1 -5 2 -9 7 -9 10 0 119 -152 123 -172 2 -7 10 -18 18 -25 8 -7 12 -13 8 -13 -5 0 1 -9 13 -21 21 -21 49 -20 49 2 0 18 -119 193 -196 290 -87 108 -230 249 -338 333 -76 60 -88 66 -130 66 -25 0 -46 -4 -46 -8z"></path><path id="pIBzYr7Zc" d="M1312 2272 c2 -4 69 -72 151 -152 l147 -144 0 112 0 112 -27 11 c-93 35 -279 77 -271 61z"></path><path id="pwKo24gZT" d="M858 2228 c-38 -13 -35 -23 12 -53 23 -14 43 -32 47 -40 3 -8 12 -15 20 -15 16 0 99 -80 96 -92 -2 -4 3 -8 11 -8 15 0 79 -73 89 -102 4 -10 15 -18 26 -18 11 0 24 -8 30 -17 5 -10 12 -16 14 -13 13 14 -283 371 -306 369 -7 0 -24 -5 -39 -11z"></path><path id="p1ADUhF1Vg" d="M1689 2108 c0 -24 -4 -83 -7 -131 -7 -86 -6 -90 22 -133 15 -24 33 -44 40 -43 7 0 6 2 -2 6 -6 2 -10 9 -6 14 3 5 -2 12 -10 15 -9 3 -14 9 -11 13 2 4 5 72 6 152 1 125 -1 144 -15 147 -13 3 -16 -6 -17 -40z"></path><path id="pu3ubj0dn" d="M691 1954 c-13 -54 -10 -90 3 -39 4 14 11 25 17 25 6 0 7 5 4 10 -3 6 1 10 9 10 19 0 21 21 4 38 -20 20 -24 15 -37 -44z"></path><path id="p197EEzEnP" d="M1354 1906 c20 -31 37 -62 39 -68 1 -6 10 -20 20 -30 10 -10 15 -23 12 -27 -2 -5 1 -11 8 -14 17 -6 79 -122 70 -131 -3 -3 -1 -6 6 -6 7 0 9 -4 6 -10 -3 -5 -1 -10 6 -10 7 0 10 -3 7 -6 -4 -3 1 -14 10 -23 9 -10 22 -26 28 -37 7 -10 15 -16 18 -13 12 12 -195 415 -213 415 -9 1 -24 5 -35 9 -14 6 -10 -5 18 -49z"></path><path id="pHQaJWB87" d="M2067 1814 c-21 -75 -20 -80 23 -93 22 -6 38 -16 35 -21 -4 -6 3 -10 15 -10 21 0 20 1 -7 50 -15 28 -35 60 -44 72 -16 20 -17 21 -22 2z"></path><path id="pNw7QNhm9" d="M261 1763 c-27 -43 -29 -48 -13 -51 28 -4 72 16 72 33 0 8 -5 15 -11 15 -7 0 -9 10 -7 25 8 38 -6 30 -41 -22z"></path><path id="p18A01WA17" d="M193 1503 c-46 -30 -84 -83 -60 -83 7 0 38 13 68 29 30 17 65 32 79 35 43 8 90 28 90 37 0 5 -30 9 -67 9 -57 0 -75 -5 -110 -27z"></path><path id="p14JoymV59" d="M2008 1523 c6 -2 12 -11 12 -19 0 -9 11 -14 35 -14 19 0 35 -5 35 -11 0 -6 8 -9 18 -6 19 4 72 -19 72 -31 0 -10 70 -36 77 -29 11 11 -31 65 -70 91 -36 22 -51 26 -117 25 -41 0 -69 -3 -62 -6z"></path><path id="p15mhjFHBL" d="M1026 1491 c-4 -5 3 -15 15 -21 27 -15 31 -10 9 13 -11 11 -20 14 -24 8z"></path><path id="p12Gc9jjJw" d="M1000 1463 c0 -7 93 -63 105 -63 3 0 4 5 3 12 -5 21 -108 70 -108 51z"></path><path id="pvDkuOAqi" d="M411 1414 c-42 -53 -49 -146 -20 -245 16 -51 30 -33 28 36 0 28 0 55 1 60 1 6 2 13 1 18 0 4 4 7 10 7 5 0 7 5 4 10 -3 6 -1 10 6 10 7 0 9 3 6 7 -4 3 5 16 18 29 31 29 31 44 2 72 -29 28 -31 28 -56 -4z"></path><path id="p1AM7OdS7Y" d="M970 1431 c1 -3 40 -25 88 -48 50 -24 112 -64 147 -95 40 -36 51 -42 33 -20 -16 19 -28 37 -28 42 0 4 -9 10 -20 13 -13 3 -18 11 -14 20 3 10 -2 18 -15 22 -11 3 -20 11 -18 18 1 6 -6 13 -17 15 -11 2 -16 0 -12 -7 4 -6 -12 -2 -36 9 -23 10 -46 16 -50 14 -4 -3 -8 -1 -8 4 0 5 -11 12 -25 14 -14 3 -25 2 -25 -1z"></path><path id="p4ZAvsDyD" d="M1911 1416 c-21 -23 -22 -28 -11 -55 6 -17 10 -32 9 -35 -2 -3 5 -12 16 -20 18 -13 20 -26 20 -110 0 -53 3 -96 6 -96 11 0 39 74 49 130 13 68 4 131 -24 172 -28 41 -38 43 -65 14z"></path><path id="pfyRkoBap" d="M245 1264 c-100 -67 -125 -112 -124 -224 0 -41 4 -84 8 -95 l8 -20 6 20 c4 11 5 29 3 40 -2 11 1 26 6 32 6 7 8 20 4 28 -3 8 -1 15 5 15 6 0 9 7 5 15 -3 8 -1 15 5 15 6 0 7 5 4 10 -3 6 -1 10 4 10 6 0 11 6 11 13 0 7 18 31 40 52 22 21 40 43 40 48 0 5 7 15 15 23 16 16 20 44 7 44 -4 0 -25 -12 -47 -26z"></path><path id="pcULfPwgV" d="M2077 1269 c-4 -16 5 -33 36 -66 44 -47 83 -103 72 -103 -3 0 1 -7 10 -17 10 -9 15 -26 12 -40 -2 -12 0 -23 6 -23 6 0 8 -19 4 -45 -4 -37 -1 -47 13 -55 17 -9 19 -3 25 56 16 144 -11 214 -109 281 -57 39 -62 40 -69 12z"></path><path id="p1Dy30TT7Z" d="M1094 1175 c-23 -13 -52 -39 -66 -57 -29 -38 -64 -125 -54 -135 3 -3 6 -1 6 6 0 7 6 19 13 26 27 31 37 44 37 50 0 12 80 92 105 105 27 14 33 30 13 30 -7 0 -32 -11 -54 -25z"></path><path id="pxmHDeVAB" d="M961 893 c0 -31 2 -34 9 -18 12 28 12 55 0 55 -5 0 -10 -17 -9 -37z"></path></g></g></svg>